<?xml version="1.0" encoding="UTF-8" standalone="no"?>
<!-- Created with Inkscape (http://www.inkscape.org/) -->

<svg
   xmlns:dc="http://purl.org/dc/elements/1.1/"
   xmlns:cc="http://creativecommons.org/ns#"
   xmlns:rdf="http://www.w3.org/1999/02/22-rdf-syntax-ns#"
   xmlns:svg="http://www.w3.org/2000/svg"
   xmlns="http://www.w3.org/2000/svg"
   xmlns:sodipodi="http://sodipodi.sourceforge.net/DTD/sodipodi-0.dtd"
   xmlns:inkscape="http://www.inkscape.org/namespaces/inkscape"
   width="1895"
   height="1075"
   viewBox="0 0 501.38541 284.42709"
   version="1.1"
   id="svg8"
   inkscape:version="0.92.5 (2060ec1f9f, 2020-04-08)"
   sodipodi:docname="splash.svg"
   inkscape:export-filename="/home/joost/git/org/static/splash.png"
   inkscape:export-xdpi="96"
   inkscape:export-ydpi="96">
  <defs
     id="defs2">
    <clipPath
       clipPathUnits="userSpaceOnUse"
       id="clipPath1112">
      <rect
         y="-79.464294"
         x="-303.1369"
         height="284.42709"
         width="501.38541"
         id="rect1114"
         style="opacity:1;fill:#fffcf8;fill-opacity:1;stroke:none;stroke-width:1.99999988;stroke-linecap:round;stroke-linejoin:round;stroke-miterlimit:4;stroke-dasharray:none;stroke-dashoffset:0;stroke-opacity:0.94117647" />
    </clipPath>
  </defs>
  <sodipodi:namedview
     id="base"
     pagecolor="#ffffff"
     bordercolor="#666666"
     borderopacity="1.0"
     inkscape:pageopacity="0.0"
     inkscape:pageshadow="2"
     inkscape:zoom="0.7"
     inkscape:cx="952.10105"
     inkscape:cy="171.88498"
     inkscape:document-units="mm"
     inkscape:current-layer="g1028"
     showgrid="false"
     fit-margin-top="0"
     fit-margin-left="0"
     fit-margin-right="0"
     fit-margin-bottom="0"
     inkscape:window-width="3840"
     inkscape:window-height="2032"
     inkscape:window-x="0"
     inkscape:window-y="54"
     inkscape:window-maximized="1"
     units="px" />
  <metadata
     id="metadata5">
    <rdf:RDF>
      <cc:Work
         rdf:about="">
        <dc:format>image/svg+xml</dc:format>
        <dc:type
           rdf:resource="http://purl.org/dc/dcmitype/StillImage" />
        <dc:title />
      </cc:Work>
    </rdf:RDF>
  </metadata>
  <g
     inkscape:label="Layer 1"
     inkscape:groupmode="layer"
     id="layer1"
     transform="translate(303.1369,79.464287)">
    <rect
       style="opacity:1;fill:#fffcf8;fill-opacity:1;stroke:none;stroke-width:2;stroke-linecap:round;stroke-linejoin:round;stroke-miterlimit:4;stroke-dasharray:none;stroke-dashoffset:0;stroke-opacity:0.94117647"
       id="rect858"
       width="501.38541"
       height="284.42709"
       x="-303.1369"
       y="-79.464294" />
    <g
       id="g1028"
       clip-path="url(#clipPath1112)">
      <path
         inkscape:connector-curvature="0"
         id="path817"
         d="m -217.62435,70.43143 c 17.01637,1.84537 34.59058,9.88846 50.22366,2.91905 16.16005,-7.20434 22.21026,-26.164804 33.1362,-40.081853 14.7852,-18.832842 43.965978,-32.2618438 42.417178,-56.155266 -1.5169,-23.401261 -31.292148,-33.128541 -49.187008,-48.283424 -15.0347,-12.732668 -27.66776,-31.657737 -47.29019,-33.421667 -19.29929,-1.73489 -32.5974,19.831955 -51.39117,24.550829 -20.03607,5.0308 -43.37542,-7.812456 -60.61353,3.572111 -17.80321,11.757768 -24.8805,34.670665 -28.99274,55.606546 -4.2518,21.64643925 -8.50081,47.470021 5.37847,64.61641 14.03795,17.342415 40.99906,13.982885 62.63972,19.412895 14.61196,3.666389 28.70232,5.640169 43.67941,7.264369"
         style="opacity:0.33;fill:#ff6b6b;stroke:none;stroke-width:0.26458332px;stroke-linecap:butt;stroke-linejoin:miter;stroke-opacity:1" />
      <path
         style="opacity:0.33;fill:#ae3ec9;stroke:none;stroke-width:0.26458332px;stroke-linecap:butt;stroke-linejoin:miter;stroke-opacity:1"
         d="m 149.53182,210.36156 c 20.87761,1.34616 41.47631,-6.60422 58.60687,-18.61425 16.72825,-11.72798 26.8959,-29.71254 36.23911,-47.88114 9.75146,-18.96248 26.82308,-39.82882 19.08321,-59.697468 C 255.40015,63.476052 225.08551,64.009141 207.82598,50.035793 194.75071,39.450028 189.93877,21.080274 175.29878,12.792414 158.55442,3.3132573 138.64998,-4.8046127 120.12205,0.38565429 101.55664,5.5864233 91.36127,24.648948 79.29423,39.686366 67.67659,54.163765 52.72294,67.905372 51.10069,86.397062 c -1.60093,18.248618 12.13342,33.426578 19.69963,50.109598 7.58947,16.73431 11.38704,35.4124 24.78829,47.98358 14.84528,13.92577 33.63116,24.56163 53.94321,25.87132"
         id="path819"
         inkscape:connector-curvature="0" />
      <path
         style="opacity:0.33;fill:#ffec99;stroke:none;stroke-width:0.26458332px;stroke-linecap:butt;stroke-linejoin:miter;stroke-opacity:1"
         d="m 240.24969,98.788776 c 20.01971,-2.14296 21.55161,-33.06109 36.3925,-46.6678 11.22353,-10.29017 33.9421,-7.85649 38.81294,-22.28348 4.99986,-14.80914 -12.63467,-27.6872596 -16.86129,-42.73537 -3.47029,-12.35532 2.32545,-27.22078 -5.6185,-37.2998 -7.98583,-10.13218 -22.66611,-10.90106 -35.09538,-14.35668 -12.24517,-3.40445 -24.24013,-4.86304 -36.9243,-5.66648 -19.3048,-1.2228 -41.68195,-12.2726 -56.85448,-0.27363 -14.55587,11.51129 -12.78273,35.11356 -10.48607,53.52888 1.99644,16.00800039 14.28956,27.84483 22.37546,41.80388 7.18807,12.40911 13.08375,24.82455 22.48992,35.64933 12.64669,14.55403 22.59807,40.353284 41.7692,38.30115"
         id="path821"
         inkscape:connector-curvature="0" />
      <path
         inkscape:connector-curvature="0"
         id="path823"
         d="m -128.40825,-20.596683 c 18.14916,-1.31479 33.346907,20.51597969 51.001577,16.1074997 17.97473,-4.4884 35.16439,-20.2510297 38.54364,-38.4675097 3.42469,-18.46137 -19.979,-31.93937 -22.0203,-50.60442 -2.16458,-19.792277 24.95642,-44.280457 10.18344,-57.628207 -15.74187,-14.22317 -40.80118,16.92137 -61.297617,11.44527 -19.59787,-5.23602 -24.31662,-37.48443 -44.47982,-39.70616 -19.11449,-2.10617 -38.75361,12.75178 -48.21858,29.49198 -9.24111,16.34427 -4.23801,36.97719 0.3412,55.186227 3.47464,13.81672 19.58666,21.40068 22.42967,35.36107 4.25824,20.9098 -19.73905,50.1439297 -2.46541,62.6720196 16.7601,12.1556404 35.33246,-22.3618396 55.9822,-23.8577696"
         style="opacity:0.33000004;fill:#f03e3e;stroke:none;stroke-width:0.26458332px;stroke-linecap:butt;stroke-linejoin:miter;stroke-opacity:1" />
      <path
         inkscape:connector-curvature="0"
         id="path825"
         d="m -13.586597,-18.137892 c 14.84967,1.7194 31.37221,10.8983199 43.85678,2.67582 12.50359,-8.235035 7.66072,-28.308355 14.93308,-41.395595 8.22299,-14.79797 31.10782,-22.73027 30.09097,-39.62904 -0.99488,-16.533763 -21.17756,-24.521663 -34.54003,-34.308713 -10.80971,-7.91735 -23.99405,-10.17641 -35.52159,-17.00641 -16.62484,-9.85012 -27.68103,-31.52226 -47.00121,-31.8879 -19.22966,-0.36392 -41.29075,12.01423 -47.8562,30.09271 -6.9104,19.02831 16.26655,37.03181 16.12715,57.275693 -0.10962,15.91784 -21.78727,28.53442 -16.8222,43.65842 4.8413,14.74697 24.52951,18.01105 38.95115,23.74808 12.13467,4.827255 24.80925,5.274845 37.7821,6.776935"
         style="opacity:0.33000004;fill:#5c7cfa;stroke:none;stroke-width:0.26458332px;stroke-linecap:butt;stroke-linejoin:miter;stroke-opacity:1" />
      <path
         style="opacity:0.33000004;fill:#cc5de8;stroke:none;stroke-width:0.26458332px;stroke-linecap:butt;stroke-linejoin:miter;stroke-opacity:1"
         d="m -232.06332,160.98256 c 14.75488,1.56518 25.4301,-13.91379 36.68819,-23.57911 9.83986,-8.44775 16.95689,-18.63529 24.64672,-29.07831 9.81659,-13.331175 24.57134,-24.255415 26.71466,-40.67183 2.33193,-17.861048 -4.72158,-35.890899 -14.76661,-50.842323 -10.83589,-16.12856934 -24.49953,-37.160549 -43.91862,-36.507084 -20.91972,0.703962 -29.64157,28.0383097 -47.11024,39.570263 -10.79302,7.125023 -25.33303,6.159044 -35.06424,14.677289 -10.55661,9.240764 -19.55978,21.1832 -21.73645,35.043357 -2.18734,13.928113 1.80662,28.702043 9.91416,40.236308 7.51675,10.69377 22.37748,12.17367 32.62708,20.28541 11.86222,9.38801 16.96226,29.27028 32.00535,30.86603"
         id="path827"
         inkscape:connector-curvature="0" />
      <path
         inkscape:connector-curvature="0"
         id="path829"
         d="m 166.63707,243.21195 c 18.92572,2.50505 41.67864,7.78702 55.89297,-4.9575 14.49703,-12.99799 3.93815,-38.24385 12.03875,-55.94986 8.10985,-17.72622 35.81879,-26.30302 34.49005,-45.7511 -1.30226,-19.06029 -23.46348,-30.0648 -40.2883,-39.114381 -13.45246,-7.23569 -29.17336,-5.71173 -44.43017,-6.45321 -11.80489,-0.57371 -23.08173,0.143 -34.64015,2.61041 -12.47085,2.66219 -25.3799,4.44106 -35.39137,12.339411 -11.1779,8.81859 -17.77173,21.51346 -23.84277,34.3922 -8.22531,17.44869 -24.03718,35.60947 -17.75344,53.84759 6.1871,17.95765 29.95801,21.65248 46.79466,30.44263 15.28036,7.97762 30.04142,16.33195 47.12977,18.59381"
         style="opacity:0.33;fill:#ffa94d;stroke:none;stroke-width:0.26458332px;stroke-linecap:butt;stroke-linejoin:miter;stroke-opacity:1" />
      <path
         style="opacity:0.33000004;fill:#f76707;stroke:none;stroke-width:0.26458332px;stroke-linecap:butt;stroke-linejoin:miter;stroke-opacity:1"
         d="m -85.676484,-16.018009 c 20.83139,0.77074 38.95337,-15.38981 52.93855,-30.84856 12.09899,-13.373831 10.69974,-33.557181 19.545839,-49.273301 10.0556607,-17.86501 36.807501,-28.17648 35.566321,-48.63966 -1.21752,-20.07313 -25.9063703,-29.30365 -41.0934,-42.48507 -12.99717,-11.28076 -25.53079,-22.38551 -41.37852,-29.09558 -17.46386,-7.39434 -36.22364,-16.43661 -54.539056,-11.51673 -18.40731,4.94457 -29.04575,23.15081 -41.73094,37.37674 -12.87587,14.43979 -31.57234,27.05791 -32.93394,46.35696 -1.35703,19.23419 16.58258,33.53784 26.1146,50.2988 8.56408,15.05892 14.80623,30.87691 27.03097,43.15147 14.70331,14.763221 29.6582,33.904561 50.479576,34.674931"
         id="path831"
         inkscape:connector-curvature="0" />
      <path
         inkscape:connector-curvature="0"
         id="path833"
         d="M 81.649972,51.670703 C 104.33371,46.828683 110.78888,17.350425 127.04873,0.80854514 138.87843,-11.226355 156.67794,-17.024375 164.0806,-32.189725 c 7.47999,-15.323769 5.70055,-33.09194 3.48156,-49.99898 -2.24222,-17.08416 -6.45038,-33.825145 -16.3354,-47.938105 -10.59802,-15.13092 -25.011,-26.80511 -41.64469,-34.8407 -18.913418,-9.13692 -39.691378,-19.41962 -60.060641,-14.29228 -20.52569,5.16671 -31.65046,26.22596 -46.6552897,41.15474 -16.3602903,16.27736 -41.2586703,27.70866 -45.3821103,50.416085 -4.12907,22.73851 13.14807,43.268281 24.73947,63.26126 10.5784203,18.2458101 22.8444803,34.88066 39.59231,47.69901 17.89414,13.695698 37.79708,33.103378 59.834163,28.399398"
         style="opacity:0.33000004;fill:#ffec99;stroke:none;stroke-width:0.26458332px;stroke-linecap:butt;stroke-linejoin:miter;stroke-opacity:1" />
      <path
         style="opacity:0.33000004;fill:#1098ad;stroke:none;stroke-width:0.26458332px;stroke-linecap:butt;stroke-linejoin:miter;stroke-opacity:1"
         d="m 131.60115,49.442794 c 22.30626,2.22897 42.08782,22.28985 63.7679,16.5878 22.78611,-5.99294 40.70802,-25.62053 51.05703,-46.78774 10.46929,-21.4132203 13.71234,-47.27046 5.94758,-69.80585 -7.32521,-21.25972 -27.9816,-34.10799 -46.26298,-47.20016 -14.85287,-10.636874 -31.14049,-19.382514 -49.31373,-21.246934 -16.38352,-1.68081 -30.83915,8.48669 -47.05607,11.36018 -18.929157,3.35408 -40.262207,-4.01212 -56.079317,6.91447 -16.74275,11.566044 -23.40017,32.652554 -29.3622,52.109314 -6.7986,22.1868 -17.7420301,47.0405797 -7.38245,67.80473 10.35961,20.76421 36.17566,28.9561 58.61201,34.87686 18.50801,4.88411 37.025517,-6.51593 56.072227,-4.61267"
         id="path835"
         inkscape:connector-curvature="0" />
      <path
         style="opacity:0.33;fill:#0ca678;stroke:none;stroke-width:0.26458332px;stroke-linecap:butt;stroke-linejoin:miter;stroke-opacity:1"
         d="m -236.40537,46.917101 c 20.67573,2.70371 45.57177,15.16696 61.27126,1.44345 16.34214,-14.28528 -0.69767,-43.8462101 9.28575,-63.11997 10.89031,-21.02459 44.40684,-26.18746 49.00484,-49.414537 4.53766,-22.92233 -8.14432,-49.073754 -26.69585,-63.280804 -18.18223,-13.92423 -44.18578,-4.67948 -66.79624,-8.3169 -19.01986,-3.0598 -36.28656,-13.08514 -55.47293,-11.35298 -21.9355,1.98034 -51.89099,1.77828 -60.9329,21.86215 -9.94428,22.08818 20.19061,43.997684 20.37693,68.220581 0.1426,18.53859 -23.10874,32.72051 -19.46067,50.8971599 3.66409,18.2564801 21.63522,30.2208501 37.64822,39.7229801 15.64256,9.28233 33.736,10.98041 51.77159,13.33887"
         id="path837"
         inkscape:connector-curvature="0" />
      <path
         inkscape:connector-curvature="0"
         id="path839"
         d="m -220.58857,101.59599 c 17.48547,-5.141898 24.77463,-26.888838 41.71634,-33.609018 23.6357,-9.37545 64.16705,11.37177 73.73619,-12.186929 9.789635,-24.10157 -32.67937,-39.30858 -43.14629,-63.1238122 -6.54709,-14.8965218 2.26066,-33.1987398 -5.47872,-47.5120758 -8.58185,-15.87141 -22.6946,-28.684933 -39.40325,-35.493407 -17.61817,-7.179081 -37.49869,-8.433791 -55.8199,-3.308295 -18.44744,5.160813 -36.34307,15.594871 -46.39296,31.903135 -9.55403,15.503609 -3.75279,35.118231 -6.04217,53.1849528 -2.23963,17.674212 -10.49638,34.3365522 -7.26854,51.8572422 3.77143,20.471319 9.5824,43.445329 26.94213,54.930869 17.37922,11.498438 41.16512,9.236348 61.15717,3.357338"
         style="opacity:0.33000004;fill:#3bc9db;stroke:none;stroke-width:0.26458332px;stroke-linecap:butt;stroke-linejoin:miter;stroke-opacity:1" />
      <path
         style="opacity:0.33000004;fill:#40c057;stroke:none;stroke-width:0.26458332px;stroke-linecap:butt;stroke-linejoin:miter;stroke-opacity:1"
         d="m -226.17697,271.42638 c 21.49358,0.59512 25.25375,-33.72068 41.94855,-47.27151 13.98155,-11.34853 35.21296,-10.95334 46.78435,-24.75117 13.16001,-15.69212 21.63959,-35.85746 21.21622,-56.33336 -0.44702,-21.61983 -9.72254,-42.43211 -23.60121,-59.01479 -14.01554,-16.74621 -33.93849,-26.38948 -54.35684,-34.13195 -21.82453,-8.27569 -45.63572,-20.17345 -67.53107,-12.08697 -21.77708,8.0428 -30.1538,33.63531 -43.0615,52.931482 -11.28235,16.866368 -22.53058,33.202138 -27.68436,52.828948 -5.65449,21.53359 -17.67512,48.31102 -3.3488,65.3525 15.40218,18.32126 48.35748,1.07244 69.15284,12.92295 18.91413,10.77848 18.72065,48.95133 40.48182,49.55387"
         id="path841"
         inkscape:connector-curvature="0" />
      <path
         inkscape:connector-curvature="0"
         id="path843"
         d="m -246.02709,82.219461 c 22.6153,1.68709 45.42224,-12.72318 59.11267,-30.8034 12.57967,-16.61329 -0.8146,-42.6036601 9.97224,-60.4333299 13.25832,-21.9147801 60.67965,-24.3358801 56.612,-49.6243491 -4.10415,-25.515399 -50.0078,-13.660666 -69.51743,-30.608439 -15.14428,-13.155633 -7.35925,-46.425793 -26.40653,-52.719503 -18.8139,-6.21659 -34.59516,16.82495 -51.63839,26.93145 -12.66729,7.5116 -26.33377,13.23249 -35.51334,24.748799 -8.94712,11.224663 -9.29213,26.297552 -15.49409,39.242925 -9.66538,20.174587 -35.53675,36.028547 -31.06902,57.9483669 4.20349,20.6233601 33.19478,23.7484801 50.23772,36.0979901 18.32086,13.2755 31.14211,37.53637 53.70417,39.21949"
         style="opacity:0.33;fill:#d6336c;stroke:none;stroke-width:0.26458332px;stroke-linecap:butt;stroke-linejoin:miter;stroke-opacity:1" />
      <path
         inkscape:connector-curvature="0"
         id="path845"
         d="m -170.01319,20.191115 c 20.79298,6.09023 43.72019,28.62866 61.55497,16.32551 18.091029,-12.47993 0.30654,-43.4537198 7.7486,-64.133899 6.472891,-17.987031 28.380023,-27.433221 31.960677,-46.211201 4.11624,-21.58678 2.14427,-46.044615 -11.012688,-63.646195 -13.3695,-17.88589 -37.165739,-23.33294 -58.623249,-29.51378 -21.36079,-6.15298 -44.10276,-13.54862 -65.05075,-6.11053 -20.61876,7.32118 -30.97165,29.08218 -45.5632,45.38665 -14.86738,16.61267 -38.47809,29.044595 -40.88404,51.208695 -2.40504,22.1557 13.67243,42.532281 28.94675,58.75995 12.68719,13.4790802 31.78655,16.78616023 48.86986,23.9136502 13.91893,5.8072398 27.57939,9.7818298 42.05307,14.0211498"
         style="opacity:0.33000004;fill:#845ef7;stroke:none;stroke-width:0.26458332px;stroke-linecap:butt;stroke-linejoin:miter;stroke-opacity:1" />
      <path
         style="opacity:0.33;fill:#9775fa;stroke:none;stroke-width:0.26458332px;stroke-linecap:butt;stroke-linejoin:miter;stroke-opacity:1"
         d="m -281.30666,226.27957 c 23.69123,-0.47783 44.48777,36.29709 65.13405,24.66766 20.08775,-11.31484 5.2689,-44.46273 10.05103,-67.01717 3.47642,-16.39618 12.64255,-30.49226 14.16259,-47.18388 1.88158,-20.66171 6.78958,-43.30959 -4.32644,-60.82733 -11.41242,-17.98485 -33.83563,-25.05825 -54.17848,-31.37061 -20.59037,-6.38918 -43.90344,-14.72393 -63.16566,-5.04117 -19.09789,9.60016 -19.96686,36.53194 -33.07248,53.4183 -12.09275,15.58129 -34.5662,22.6393 -40.54399,41.43518 -6.22634,19.57739 1.9465,40.2819 8.34642,59.80323 7.09356,21.63711 9.11977,52.32782 30.7483,59.44532 23.33828,7.68013 42.28026,-26.83409 66.84466,-27.32953"
         id="path847"
         inkscape:connector-curvature="0" />
      <path
         inkscape:connector-curvature="0"
         id="path849"
         d="m 117.99401,61.916008 c 18.50353,4.37181 37.83828,20.55139 54.65099,11.67275 16.46892,-8.69709 11.03008,-34.61322 19.85099,-51.01659 9.7255,-18.0855569 31.41787,-29.3353069 34.29211,-49.667977 3.11086,-22.00663 -4.1666,-45.61726 -18.41089,-62.67759 -14.33665,-17.170951 -36.32873,-28.775961 -58.6802,-29.654121 -20.87611,-0.8202 -36.73006,17.12884 -56.02227,25.147601 -16.66441,6.92653 -34.57954,8.77915 -49.61485,18.76025 -19.0574,12.65114 -46.568679,23.66309 -48.611402,46.44662 -2.070625,23.0947401 22.863212,39.376437 39.465452,55.562847 12.04337,11.74173 27.36542,18.08114 42.83728,24.67851 13.03584,5.55861 26.45108,7.48915 40.24279,10.7477"
         style="opacity:0.33000004;fill:#8ce99a;stroke:none;stroke-width:0.26458332px;stroke-linecap:butt;stroke-linejoin:miter;stroke-opacity:1" />
      <path
         style="opacity:0.33000004;fill:#e64980;stroke:none;stroke-width:0.26458332px;stroke-linecap:butt;stroke-linejoin:miter;stroke-opacity:1"
         d="m -225.93601,318.68023 c 24.05428,0.0853 24.118,-40.11925 39.32057,-58.76122 9.22575,-11.31295 21.25317,-18.70476 31.95208,-28.63594 18.29253,-16.9799 48.31082,-25.99021 53.25309,-50.4551 4.758351,-23.55451 -14.17892,-45.921 -30.15807,-63.86832 -15.84241,-17.793728 -35.77136,-35.140559 -59.53239,-36.86937 -22.91734,-1.667426 -41.42099,16.769548 -61.42923,28.06842 -15.53721,8.77402 -31.77473,16.43467 -42.55592,30.6531 -10.36731,13.67259 -16.52954,30.41159 -16.75636,47.56902 -0.21193,16.03151 6.91285,30.97444 15.53937,44.48857 7.77269,12.17654 22.19153,17.49868 31.22499,28.77154 15.07059,18.80659 15.04257,58.95389 39.14187,59.0393"
         id="path851"
         inkscape:connector-curvature="0" />
      <path
         style="opacity:0.33000004;fill:#099268;stroke:none;stroke-width:0.26458332px;stroke-linecap:butt;stroke-linejoin:miter;stroke-opacity:1"
         d="m -110.21808,344.86584 c 18.069247,-3.27329 29.424307,-20.06243 44.416447,-30.66693 14.17428,-10.02599 32.550021,-14.97376 41.304791,-29.96689 9.07484,-15.54127 7.08619,-34.46037 6.82316,-52.4554 -0.2991,-20.46349 5.48037,-44.57273 -8.46037,-59.55556 -13.97569,-15.0204 -38.470851,-11.14639 -58.915641,-12.8569 -16.736807,-1.40028 -32.502687,2.17409 -49.218117,3.80991 -21.22482,2.07714 -44.97558,-5.36437 -62.27928,7.10162 -17.91245,12.90455 -29.03955,36.22628 -28.4987,58.29695 0.52495,21.42175 20.72116,36.01943 31.26709,54.67263 9.42795,16.67574 12.02276,37.79689 27.44012,49.16619 15.74105,11.60801 36.87567,15.94064 56.1205,12.45438"
         id="path853"
         inkscape:connector-curvature="0" />
      <path
         inkscape:connector-curvature="0"
         id="path855"
         d="m -225.41125,149.52043 c 25.73529,1.05427 46.81007,45.32559 68.71491,31.77538 21.70488,-13.42651 -2.07354,-49.69289 1.17383,-75.00815 1.9997,-15.588945 14.63524,-28.285995 14.09133,-43.993265 -0.57595,-16.63249 -5.8563,-33.61535 -17.20041,-45.7921 -11.18657,-12.0076506 -28.68653,-13.8503736 -43.95889,-19.8562226 -16.98436,-6.6790944 -32.67404,-19.9285624 -50.74653,-17.3866444 -18.70433,2.630789 -32.80187,17.5441144 -46.05594,31.002035 -13.99988,14.215202 -34.26126,28.916352 -32.5306,48.793162 1.79905,20.66238 33.80837,25.80636 40.72831,45.358395 8.10481,22.89986 -19.43966,57.66017 0.5943,71.39725 19.72355,13.52423 41.2951,-27.26871 65.18969,-26.28984"
         style="opacity:0.33000004;fill:#5c7cfa;stroke:none;stroke-width:0.26458332px;stroke-linecap:butt;stroke-linejoin:miter;stroke-opacity:1" />
      <path
         style="opacity:0.33000004;fill:#228be6;stroke:none;stroke-width:0.26458332px;stroke-linecap:butt;stroke-linejoin:miter;stroke-opacity:1"
         d="m 149.53182,210.36156 c 23.32006,-1.98274 26.93663,-36.94137 44.3208,-52.61188 13.44737,-12.12178 38.77876,-11.15513 45.19885,-28.08329 6.48251,-17.09272 -12.80566,-33.450402 -14.97793,-51.601652 -2.25446,-18.838156 9.27339,-38.146347 2.13364,-55.724156 -8.14019,-20.04085 -21.97224,-45.170009 -43.57307,-46.298198 -23.10565,-1.206785 -34.82522,28.410128 -54.10868,41.196378 -12.27856,8.14153 -25.31965,13.23457 -38.349542,20.109749 -21.69206,11.44575 -53.67507,11.35783 -63.70639,33.739771 -9.44285,21.068906 5.26852,46.793298 19.444951,65.016568 12.89802,16.5799 37.099339,17.38098 54.173381,29.61698 18.42154,13.20167 26.86218,46.55969 49.44399,44.63973"
         id="path857"
         inkscape:connector-curvature="0" />
      <path
         inkscape:connector-curvature="0"
         id="path859"
         d="m 144.03267,115.63849 c 19.76263,-2.98593 23.69638,-30.69955 36.77956,-45.80995 8.69192,-10.03872 18.7418,-17.76022 27.15626,-28.03264 11.386,-13.90008 31.88424,-24.89343 30.89324,-42.83446 -0.97258,-17.60777 -22.09956,-26.27092 -35.35289,-37.90345 -11.45843,-10.05714 -22.22764,-21.20691 -36.86231,-25.4803 -14.62237,-4.26979 -31.48424,-5.84915 -44.74291,1.65121 -12.73265,7.2028 -11.07329,27.64955 -22.714297,36.50898 -16.7817,12.77176 -53.05629,3.50068 -57.06316,24.20594 -3.90478,20.17765 32.9151,23.88721 44.4667,40.88534 8.6333,12.70385 3.55121,31.00797 12.7499,43.30859 11.380297,15.2179 25.901067,36.33954 44.689907,33.50074"
         style="opacity:0.33;fill:#d8f5a2;stroke:none;stroke-width:0.26458332px;stroke-linecap:butt;stroke-linejoin:miter;stroke-opacity:1" />
      <path
         style="opacity:0.33000004;fill:#15aabf;stroke:none;stroke-width:0.26458332px;stroke-linecap:butt;stroke-linejoin:miter;stroke-opacity:1"
         d="m 40.157094,305.19025 c 19.229401,-0.93211 39.476051,-8.34464 51.547781,-23.34226 11.352085,-14.10354 5.07464,-34.79728 9.400105,-52.37789 3.29862,-13.40707 12.48717,-24.66104 12.94933,-38.46022 0.52093,-15.55425 0.93863,-33.69709 -10.16756,-44.5989 -11.105085,-10.90072 -29.233795,-8.54823 -44.774855,-9.33242 -12.48629,-0.63005 -23.912264,4.20489 -36.371699,5.23782 -16.5992845,1.37614 -37.545241,-10.33233 -48.922299,1.83334 -11.222256,12.00013 4.475545,31.99131 2.088163,48.24712 -2.399032,16.33515 -17.537469,29.41691 -15.907069,45.8466 1.8456,18.59838 10.951115,36.78228 25.295588,48.76257 15.09283349,12.60529 35.221513,19.13629 54.862515,18.18424"
         id="path861"
         inkscape:connector-curvature="0" />
      <path
         inkscape:connector-curvature="0"
         id="path863"
         d="m 196.4175,297.77101 c 19.85427,3.52125 37.57432,31.83894 55.0918,21.85216 17.0706,-9.73202 -0.12509,-39.04978 7.11622,-57.3172 6.63838,-16.7464 30.26399,-24.08773 32.2506,-41.99211 2.02028,-18.20781 -6.35797,-39.78835 -22.14547,-49.08042 -16.16099,-9.5119 -36.31812,5.36296 -54.99453,3.67802 -13.5715,-1.2244 -24.56034,-11.88208 -38.18545,-12.08452 -16.96625,-0.25209 -39.10519,-3.20756 -48.69146,10.79369 -9.90933,14.47312 4.29553,33.74431 6.26383,51.17413 1.39478,12.35116 0.5832,24.30108 3.62048,36.35391 3.64936,14.48173 3.12716,33.12087 15.85544,40.93231 12.76757,7.83554 29.06864,-6.92593 43.81854,-4.30997"
         style="opacity:0.33;fill:#099268;stroke:none;stroke-width:0.26458332px;stroke-linecap:butt;stroke-linejoin:miter;stroke-opacity:1" />
      <path
         style="opacity:0.33000004;fill:#51cf66;stroke:none;stroke-width:0.26458332px;stroke-linecap:butt;stroke-linejoin:miter;stroke-opacity:1"
         d="m 63.573873,23.29245 c 22.177009,-1.64311 27.626129,-33.1150033 41.797797,-50.252823 9.3733,-11.33515 18.44452,-21.77211 27.40609,-33.43554 11.92641,-15.52215 30.09436,-27.25115 33.96582,-46.439637 4.41175,-21.86637 4.09527,-48.66079 -11.57548,-64.53568 -15.72882,-15.93373 -43.01208,-6.62933 -64.585368,-12.61735 -21.118429,-5.86176 -39.44984,-28.17943 -60.507879,-22.1043 -21.0465378,6.07181 -24.4545878,34.90659 -39.3952702,50.92583 -15.7574388,16.89496 -43.5105198,23.39808 -50.4708998,45.42772 -7.0638,22.356977 -0.50092,49.577387 14.85578,67.294327 14.7713,17.04157 43.2438482,10.30254 62.532346,21.98794 18.467748,11.1881797 24.443863,45.344933 45.977064,43.749513"
         id="path865"
         inkscape:connector-curvature="0" />
      <path
         inkscape:connector-curvature="0"
         id="path867"
         d="m 81.491599,281.04738 c 15.308462,1.78713 30.268611,8.05562 45.127271,3.96124 17.64061,-4.86097 37.64191,-12.30508 45.36113,-28.89581 7.71957,-16.59146 -4.14427,-35.25708 -7.11087,-53.31452 -2.89477,-17.62023 4.53411,-41.28317 -10.10902,-51.50157 -15.73996,-10.9838 -38.00417,11.45063 -56.168689,5.25108 -19.646361,-6.7053 -25.226908,-39.52606 -45.977616,-40.11358 -18.974301,-0.53723 -29.620492,22.58804 -41.178624,37.6459 -10.9620669,14.28131 -23.203445,29.20268 -23.940773,47.19123 -0.715658,17.45989 9.6183979,33.27339 20.0685761,47.27858 8.9678429,12.01859 21.3723279,20.62317 35.0999319,26.65753 12.229684,5.37591 25.559767,4.29088 38.828683,5.83992"
         style="opacity:0.33;fill:#82c91e;stroke:none;stroke-width:0.26458332px;stroke-linecap:butt;stroke-linejoin:miter;stroke-opacity:1" />
      <path
         inkscape:connector-curvature="0"
         id="path869"
         d="m -247.89796,96.302085 c 17.82461,-4.21893 31.97442,-15.509722 48.8455,-22.643092 21.30765,-9.0092 50.71177,-5.38482 63.3194,-24.78201 12.40694,-19.08842 1.1445,-44.5830699 -3.78798,-66.808729 -4.60003,-20.727671 -6.77933,-45.032909 -23.83794,-57.673333 -16.85557,-12.489972 -41.57164,1.30782 -61.41517,-5.499211 -21.38351,-7.335297 -33.91164,-35.54439 -56.51049,-34.95344 -22.47157,0.58761 -43.7691,17.912486 -54.15883,37.847376 -9.98227,19.153084 5.86625,42.346635 1.35464,63.468598 -5.04514,23.6197491 -32.85245,41.091579 -28.77337,64.897199 4.03837,23.56806 26.4037,41.867202 48.59359,50.774227 21.00668,8.43208 44.3435,0.58605 66.37065,-4.627585"
         style="opacity:0.33;fill:#a9e34b;stroke:none;stroke-width:0.26458332px;stroke-linecap:butt;stroke-linejoin:miter;stroke-opacity:1" />
      <path
         style="opacity:0.33;fill:#66d9e8;stroke:none;stroke-width:0.26458332px;stroke-linecap:butt;stroke-linejoin:miter;stroke-opacity:1"
         d="m 166.48331,151.40568 c 16.75739,-1.18202 34.73767,-0.13768 48.35957,-9.96917 13.39288,-9.66617 20.82761,-26.00666 23.95703,-42.224652 2.77248,-14.3682 -7.10873,-27.7027 -7.64209,-42.326246 -0.62766,-17.208548 12.74663,-35.451506 4.25883,-50.434164 -8.37847,-14.789664 -29.13123,-15.644275 -45.05746,-21.583524 -17.23445,-6.427119 -36.35174,-24.220366 -52.04706,-14.62895 -17.2149,10.520038 -8.52324,38.500782 -16.9862,56.815231 -5.30744,11.485668 -20.38442,16.941071 -22.832274,29.354747 -2.47712,12.562106 7.821604,23.676136 9.883254,36.313086 3.07312,18.836852 -8.2743,42.298682 5.15437,55.860742 12.69404,12.82014 34.9556,4.09233 52.95203,2.8229"
         id="path871"
         inkscape:connector-curvature="0" />
      <path
         inkscape:connector-curvature="0"
         id="path873"
         d="m 166.63707,243.21195 c 23.01967,0.86855 35.96008,-27.32889 50.20062,-45.43664 10.55875,-13.42612 17.14593,-28.89639 21.2891,-45.46712 3.55339,-14.21182 -1.45725,-28.58203 0.84274,-43.0497 3.66955,-23.08263 31.51343,-48.66724 16.5986,-66.66183 C 240.8182,24.80101 209.94179,54.21142 187.81274,47.53834 165.39421,40.77796 156.45053,3.14415 133.17355,5.6882 111.38208,8.06988 105.24598,38.2373 95.102175,57.67107 86.954346,73.28089 80.470054,89.62071 80.173697,107.2267 c -0.273321,16.23747 6.721586,30.99796 13.322784,45.83545 6.665759,14.98261 14.985149,28.28026 25.316799,41.0146 14.69768,18.11569 24.5128,48.25565 47.82379,49.1352"
         style="opacity:0.33;fill:#a5d8ff;stroke:none;stroke-width:0.26458332px;stroke-linecap:butt;stroke-linejoin:miter;stroke-opacity:1" />
      <path
         style="opacity:0.33;fill:#be4bdb;stroke:none;stroke-width:0.26458332px;stroke-linecap:butt;stroke-linejoin:miter;stroke-opacity:1"
         d="m -280.39134,265.44396 c 19.76263,-2.98593 23.69638,-30.69955 36.77956,-45.80995 8.69192,-10.03872 18.7418,-17.76022 27.15626,-28.03264 11.386,-13.90008 31.88424,-24.89343 30.89324,-42.83446 -0.97258,-17.60777 -22.09956,-26.27092 -35.35289,-37.90345 -11.45843,-10.05713 -22.22764,-21.206907 -36.86231,-25.480297 -14.62237,-4.26979 -31.48423,-5.84914 -44.7429,1.65121 -12.73265,7.2028 -11.0733,27.649547 -22.71431,36.508977 -16.78169,12.77176 -53.05628,3.50068 -57.06316,24.20594 -3.90477,20.17765 32.9151,23.88721 44.46671,40.88534 8.6333,12.70385 3.5512,31.00797 12.74989,43.30859 11.3803,15.2179 25.90107,36.33954 44.68991,33.50074"
         id="path877"
         inkscape:connector-curvature="0" />
      <path
         inkscape:connector-curvature="0"
         id="path879"
         d="m -292.1512,225.21954 c 17.79142,5.52315 36.1408,-9.23182 50.55338,-21.03543 13.44306,-11.00959 20.67354,-27.03656 27.60168,-42.97198 6.81099,-15.666 17.12479,-32.31996 12.25062,-48.69241 -4.82677,-16.213222 -25.0192,-21.30546 -36.72497,-33.517464 -10.90013,-11.371513 -15.95992,-27.68709 -29.56006,-35.634117 -15.58873,-9.109022 -34.29402,-16.570201 -51.72453,-11.863229 -17.49698,4.724923 -30.60992,20.253085 -38.94392,36.347534 -7.457,14.400803 -6.33404,31.350051 -4.45189,47.457546 1.53353,13.12401 7.47034,24.78084 14.2202,36.13988 6.11218,10.2859 15.74428,17.08558 23.04208,26.56711 12.03998,15.64271 14.88561,41.35023 33.73741,47.20256"
         style="opacity:0.33;fill:#ffd43b;stroke:none;stroke-width:0.26458332px;stroke-linecap:butt;stroke-linejoin:miter;stroke-opacity:1" />
      <path
         style="opacity:0.33000004;fill:#ff922b;stroke:none;stroke-width:0.26458332px;stroke-linecap:butt;stroke-linejoin:miter;stroke-opacity:1"
         d="m 129.44164,163.12294 c 16.48671,-0.83546 29.96804,-13.76588 40.85547,-26.17496 9.17606,-10.45853 10.9861,-24.69259 15.36233,-37.899948 3.86438,-11.662643 7.74493,-22.782553 8.80065,-35.023353 1.32762,-15.393511 5.81208,-31.9675 -1.86665,-45.37479 C 184.5778,4.6543489 168.34627,-2.0701241 153.29187,-7.8562001 137.22186,-14.032621 120.28077,-18.488653 103.29694,-15.670742 85.046723,-12.642718 66.613813,-5.5482751 54.598334,8.5187589 42.613864,22.549489 35.577964,42.052858 38.418184,60.285579 c 2.66566,17.11212 21.82898,25.74797 30.582869,40.691011 7.50315,12.80801 6.48548,29.61027 16.83459,40.25146 11.57432,11.90097 27.026447,22.73506 43.605997,21.89489"
         id="path881"
         inkscape:connector-curvature="0" />
      <path
         inkscape:connector-curvature="0"
         id="path883"
         d="m 117.99401,61.916008 c 21.5097,2.49979 48.63353,7.81246 63.10452,-8.29731 15.31972,-17.05461 -3.15749,-45.6905801 4.72802,-67.21697 6.89188,-18.81393 39.23946,-26.13517 36.75154,-46.016708 -2.47076,-19.744387 -30.21466,-24.096902 -46.88489,-34.961002 -12.0152,-7.830388 -24.42936,-13.298948 -37.19513,-19.834518 -16.21921,-8.30361 -29.97178,-26.4927 -47.989286,-23.77659 -17.81577,2.6857 -24.52071,24.94221 -38.122727,36.75786 -16.55993,14.385078 -43.6603944,19.302708 -50.4322774,40.16704 -6.737511,20.758438 5.992221,43.120868 17.3513564,61.75606791 C 29.81997,17.743958 46.509137,29.295788 63.660394,39.970408 c 16.92612,10.5345 34.53047,19.64414 54.333616,21.9456"
         style="opacity:0.33;fill:#ff922b;stroke:none;stroke-width:0.26458332px;stroke-linecap:butt;stroke-linejoin:miter;stroke-opacity:1" />
      <path
         inkscape:connector-curvature="0"
         id="path885"
         d="m -100.43139,374.07361 c 20.730665,-1.838 42.768922,-7.30582 56.820402,-22.65871 13.23695,-14.46291 8.37431,-37.17721 14.87321,-55.67496 5.70172,-16.22871 20.3538398,-28.85765 20.8667598,-46.05126 0.55175,-18.49514 -9.1464798,-35.06549 -17.9615698,-51.33396 -10.94968,-20.20788 -17.39276,-48.61801 -39.53516,-54.7776 -22.202367,-6.17627 -41.060282,17.64847 -62.366892,26.43042 -18.55385,7.64733 -45.12775,4.26485 -54.78598,21.85644 -10.05745,18.31876 10.17239,39.80496 9.46525,60.69122 -0.59131,17.4652 -14.6217,32.22108 -13.20065,49.6384 1.76693,21.65662 5.48054,45.95437 22.13817,59.90549 16.90261,14.15631 41.72529,13.9216 63.68646,11.97452"
         style="opacity:0.33000004;fill:#9775fa;stroke:none;stroke-width:0.26458332px;stroke-linecap:butt;stroke-linejoin:miter;stroke-opacity:1" />
      <path
         style="opacity:0.33000004;fill:#1864ab;stroke:none;stroke-width:0.26458332px;stroke-linecap:butt;stroke-linejoin:miter;stroke-opacity:1"
         d="m 96.35586,83.709297 c 17.1209,2.91578 30.93907,-13.79199 45.24007,-23.64668 13.83908,-9.53638 33.7631,-16.38904 36.83784,-32.91243 3.18318,-17.10618 -15.19115,-30.14953 -22.13414,-46.10404 -4.74574,-10.90538 -4.927,-23.34391 -12.18717,-32.76394 -7.52342,-9.76157 -18.28225,-15.83486 -29.38749,-21.17891 -12.94855,-6.23108 -26.061473,-13.63952 -40.377025,-12.39306 -15.678833,1.36517 -29.926005,9.36875 -41.920224,19.55874 -13.402045,11.38604 -29.6862045,24.26688 -30.3502095,41.84042 -0.666417,17.63737 15.8472595,30.6380004 27.0978225,44.23713 8.728283,10.55033 20.905037,16.43187 30.866148,25.82691 12.926436,12.19185 18.79797,34.55272 36.314378,37.53586"
         id="path887"
         inkscape:connector-curvature="0" />
      <path
         inkscape:connector-curvature="0"
         id="path889"
         d="m -243.50815,24.339486 c 18.27345,4.24373 35.87909,-12.27626 48.58101,-26.0821303 11.21509,-12.1898197 15.45939,-29.0502197 17.2894,-45.5132197 1.47441,-13.263902 -5.42562,-25.306987 -7.96062,-38.409603 -2.37907,-12.296654 0.50886,-25.845753 -6.48162,-36.237943 -7.30588,-10.86105 -19.58483,-17.42675 -32.12975,-21.16243 -12.57489,-3.74462 -25.44639,-0.15245 -38.5643,0.11082 -18.52441,0.37177 -43.85974,-13.46195 -54.43032,1.75553 -11.12392,16.01406 10.68664,36.31066 14.73958,55.3835 2.38767,11.236243 0.2891,22.688506 4.14954,33.507486 4.1413,11.60611 11.67621,20.9079 18.84371,30.93169 11.51066,16.0977197 16.68713,41.23968 35.96337,45.7163"
         style="opacity:0.33;fill:#7950f2;stroke:none;stroke-width:0.26458332px;stroke-linecap:butt;stroke-linejoin:miter;stroke-opacity:1" />
      <path
         style="opacity:0.33;fill:#9775fa;stroke:none;stroke-width:0.26458332px;stroke-linecap:butt;stroke-linejoin:miter;stroke-opacity:1"
         d="m -102.50334,-42.984968 c 16.242806,-2.87731 32.672316,2.72941 48.438236,-2.12292 19.63861,-6.04425 45.1647201,-10.05436 52.9346601,-29.07699 7.83223,-19.17513 -11.8950101,-38.378162 -17.2043301,-58.399232 -4.53609,-17.10524 1.45485,-38.86331 -11.7211,-50.67636 -13.30039,-11.92463 -34.86575,-1.82221 -52.0949,-6.53864 -16.74644,-4.5843 -29.375906,-19.92204 -46.728356,-20.51397 -20.45816,-0.69787 -41.22088,4.84696 -57.72948,16.95069 -18.71703,13.72291 -39.03694,31.81096 -40.38048,54.98133 -1.34449,23.18664 22.33202,39.113422 33.75166,59.337422 10.21955,18.09866 10.53596,45.62553 29.85075,53.30144 20.00673,7.95088 39.68475,-13.48756 60.88334,-17.24277"
         id="path891"
         inkscape:connector-curvature="0" />
      <path
         style="opacity:0.33000004;fill:#6741d9;stroke:none;stroke-width:0.26458332px;stroke-linecap:butt;stroke-linejoin:miter;stroke-opacity:1"
         d="m 108.94112,217.71825 c 15.91188,2.47073 33.50163,7.47994 47.32274,-0.78285 13.86722,-8.29035 20.83663,-25.43224 23.24948,-41.40789 2.1458,-14.20746 -7.18907,-26.92082 -10.8303,-40.82036 -3.14208,-11.9941 -1.66523,-25.37003 -9.10735,-35.286817 -7.65821,-10.20475 -20.42774,-14.19073 -32.02098,-19.51766 -13.53337,-6.21839 -26.65027,-16.26853 -41.402163,-14.21925 -15.27963,2.1226 -27.529579,13.5986 -37.690207,25.20653 -10.196434,11.648817 -15.579264,26.015457 -20.104494,40.820547 -5.25595,17.19576 -17.373371,36.65273 -8.32485,52.19105 9.22694,15.84468 33.035481,13.15285 50.172786,19.67112 13.113435,4.98777 24.871565,11.99287 38.735338,14.14558"
         id="path875"
         inkscape:connector-curvature="0" />
    </g>
    <g
       transform="matrix(5.0142116,0,0,5.0142116,4636.4128,592.90028)"
       id="layer1-8"
       inkscape:label="Layer 1"
       style="opacity:1;stroke-width:0.19943315">
      <path
         style="fill:#000000;fill-opacity:1;stroke:none;stroke-width:0.05276669"
         id="path3671"
         d="m -928.92763,-117.63993 c -0.54504,0.38761 -0.51699,0.33787 -0.95726,0.48181 -1.00991,0.3302 -1.97829,0.14896 -3.12764,0.0529 -0.34554,-0.0386 -0.68844,-0.0611 -1.02314,-0.0632 -1.68937,-0.0116 -3.1242,0.48392 -3.39593,1.86743 -0.50112,0.30374 -0.96202,0.67124 -1.41843,1.03954 -0.97446,0.76888 -1.70815,1.70868 -2.20874,2.84163 -0.68342,1.6727 -0.0661,3.46826 0.23997,5.16371 0.0728,0.39688 0.1487,0.77497 0.18945,0.92102 0.0579,0.20584 0.1598,0.4019 0.27067,0.57838 0.0259,0.005 0.16271,-0.20611 0.19526,-0.29925 0.0474,-0.13573 0.0423,-0.35348 -0.01,-0.54081 -0.11456,-0.42174 -0.22383,-0.76411 -0.2331,-0.93609 -0.0164,-0.32279 0.0463,-0.62124 0.16431,-0.76888 0.0418,-0.0524 0.13785,0.21775 0.11298,0.31803 -0.0291,0.12065 -0.0513,0.32755 -0.0418,0.4228 0.0259,0.32306 0.0733,0.66861 0.1323,0.97076 0.0754,0.38973 0.10795,0.64003 0.0942,0.73686 -0.0101,0.0706 -0.0431,0.14182 -0.16986,0.3601 -0.11007,0.1913 -0.16749,0.34608 -0.17622,0.48287 -0.01,0.13335 0.0307,0.46672 0.0683,0.54848 0.0545,0.12726 0.21881,0.26114 0.36221,0.29421 0.13705,0.0524 0.20611,0.16087 0.27649,0.28284 0.17145,0.32676 0.30374,0.72478 0.43498,1.32459 0.064,0.28707 0.11747,0.54345 0.13467,0.67812 -1.05834,0.001 -2.4138,0.002 -3.64861,0.002 -0.41566,0.007 -1.16628,-0.18866 -1.85481,-0.2339 -0.0997,-1.07685 -0.57282,-2.32841 -1.38191,-2.40117 -0.55245,-0.05 -1.01045,0.16007 -1.39806,1.03267 l 0.0111,0.0468 c 0.22886,-0.1913 0.47016,-0.77629 1.34011,-0.73607 0.66808,0.0304 0.89059,1.29495 0.95674,2.05562 -0.40667,0.0299 -0.75301,0.15505 -0.93372,0.46752 h -0.004 c 0,5.3e-4 0,0.002 0.002,0.003 -0.002,0.001 -0.002,0.002 -0.002,0.003 h 0.004 c 0.18627,0.32015 0.54531,0.44424 0.96679,0.46911 0.28178,7.965014 7.76904,8.992392 9.81506,8.992392 7.63323,0 10.30552,-5.186892 10.70743,-7.241382 0.18785,0.875507 -0.40402,1.990461 -0.54584,2.813579 1.61026,-1.861608 1.31921,-3.65125 1.02473,-5.451479 0.24474,0.29105 0.576,0.47123 1.02526,0.37148 -0.32014,-0.21405 -0.75459,-0.064 -1.01467,-0.96626 -0.11351,-0.38973 -0.21167,-0.68191 -0.3093,-0.92744 -0.21061,-0.78978 -0.50933,-1.54438 -0.87657,-2.27965 -0.30956,-0.79772 -0.10504,-1.31472 -0.13599,-1.9992 0.55721,1.83754 0.90567,2.32649 1.55601,2.51884 -1.63592,-1.97115 -1.07606,-5.02322 -2.00025,-7.74737 0.41831,0.2458 0.89562,0.31988 1.40388,0.0193 -0.49159,-0.13987 -0.9824,0.23001 -1.68778,-0.80689 -0.59584,-1.15914 -1.45917,-2.01533 -2.50639,-2.77045 -0.56119,-0.36592 -1.18401,-0.61172 -1.81028,-0.84005 0.63791,-0.15981 1.3499,-0.72761 1.38297,-1.15147 z m -1.06971,6.12246 c 0.84006,0.30639 1.7661,1.47055 1.75551,2.61276 v 0.0474 0.0164 c -0.0225,1.55136 -0.7276,2.38533 -0.69797,3.41826 0.0381,1.21655 0.56171,1.64095 0.66596,1.84388 -0.17859,-0.75009 -0.28337,-1.69386 -0.0474,-2.44131 0.30321,-0.96123 0.60907,-1.75736 0.58711,-2.51047 -0.0111,-0.17621 -0.086,-0.83608 -0.13626,-1.12818 0.90064,1.29963 -0.195,3.18992 0.12012,4.42684 0.54795,2.15477 3.00355,2.42703 2.27277,6.76839 -0.6432,3.816615 -5.05089,6.713273 -9.56865,6.713273 -3.3491,0 -9.15282,-1.85367 -9.43962,-8.429093 0.68085,-0.0487 1.41295,-0.23813 1.82358,-0.23151 1.24143,0 2.65907,5.3e-4 3.72719,0.001 0.20082,0.905137 0.35137,1.123418 1.11257,1.726404 0.84667,0.665956 1.04378,0.746918 2.29632,0.759089 1.2528,0.0127 1.62428,-0.255852 2.83977,-1.405731 0.26247,-0.307446 0.37598,-0.710402 0.50324,-1.089022 1.25016,-0.0116 2.16191,-0.0339 3.05885,-0.0757 0.91334,-0.0413 1.04219,0 2.51407,-0.15161 -1.47188,-0.15161 -1.60073,-0.11007 -2.51407,-0.15213 -0.87313,-0.0397 -1.75736,-0.0622 -2.95302,-0.0733 0.10028,-0.45033 0.24369,-0.89006 0.39635,-1.32504 0.0942,-0.25646 0.20505,-0.50623 0.31856,-0.75467 l 0.12409,-0.0387 c 0.23918,-0.0849 0.45085,-0.2667 0.53525,-0.51276 0.10848,-0.3257 0.0315,-0.69162 -0.17859,-0.95779 -0.0722,-0.0998 -0.16219,-0.22728 -0.19897,-0.28337 -0.11086,-0.17542 -0.11351,-0.27279 -0.0198,-0.92446 0.0788,-0.54557 0.0876,-0.83132 0.0331,-1.10781 -0.0111,-0.15822 -0.0122,-0.48366 -0.0172,-0.57123 0.0421,0.0233 0.13282,0.23045 0.2249,0.51091 0.0915,0.28178 0.10636,0.34025 0.12726,0.57996 0.0233,0.27226 -0.0786,0.47414 -0.16245,0.88027 -0.0418,0.20955 -0.0788,0.40402 -0.0788,0.43048 0,0.0283 0.0198,0.0878 0.0407,0.13414 0.0492,0.10346 0.14128,0.24898 0.15822,0.24898 0.3003,-0.33126 0.47678,-0.74031 0.63394,-1.15517 0.16536,-0.46964 0.21378,-0.96811 0.32967,-1.45151 0.0937,-0.42122 0.20161,-0.8427 0.23521,-1.27513 0.068,-0.84323 0.0283,-1.43854 -0.15822,-2.31722 -0.0445,-0.19844 -0.17356,-0.57706 -0.26326,-0.75565 z m -2.9546,4.15459 c 0.32253,-0.004 0.64162,0.0352 0.94536,0.12277 0.41275,0.15822 0.47069,0.52705 0.54689,0.94112 0.0423,0.26458 0.0408,0.45455 -0.007,0.76544 -0.0336,0.45111 -0.21272,0.79984 -0.60404,1.0451 -0.59029,0.10928 -1.22158,0.21458 -1.72191,-0.17621 -0.42016,-0.57891 -0.6731,-1.31021 -0.57653,-2.02353 0.0611,-0.29263 0.19712,-0.44477 0.47731,-0.53578 0.30136,-0.0865 0.62071,-0.13388 0.94033,-0.13891 z m -4.89638,0.0524 c 0.30136,-0.003 0.60616,0.0291 0.77391,0.136 0.71914,0.48683 0.48842,1.27899 0.20399,1.97405 -0.41407,0.90991 -1.30916,0.8763 -2.17699,0.86916 -0.47995,-0.1405 -0.52414,-0.5342 -0.59346,-0.95462 -0.0595,-0.4064 -0.18627,-0.84164 -0.0804,-1.25016 0.27172,-0.65696 1.26497,-0.73263 1.87298,-0.77443 z m 10.97069,0.11351 c 0.004,1.74889 0.30268,2.60826 0.90249,3.84677 -0.35348,-0.67389 -0.85831,-1.05753 -1.04643,-1.86346 -0.3593,-1.55601 0.0283,-1.46896 0.14394,-1.98331 z m -8.71617,1.26656 c 0.0947,0.096 0.14049,0.22833 0.22251,0.33364 0.0635,-0.10875 0.12859,-0.2167 0.21008,-0.313 0.0423,10e-4 0.0942,0.0847 0.14102,0.23468 0.20082,0.55457 0.23998,1.1647 0.50007,1.69783 0.24315,0.38576 -0.0889,0.61066 -0.45324,0.62839 -0.26564,-5.3e-4 -0.37808,-0.18204 -0.53392,-0.36169 -0.0402,0.11748 -0.11695,0.19288 -0.2085,0.27226 -0.23256,0.19526 -0.68844,0.12303 -0.75909,-0.18468 0.0939,-0.58764 0.39318,-1.12713 0.58923,-1.69042 0.0976,-0.20558 0.0987,-0.36328 0.29184,-0.61701 z m -3.41313,2.96836 c 0.11721,0 0.43974,0.21881 0.50536,0.34237 0.0452,0.082 0.14816,0.4019 0.15531,0.4795 0.0116,0.0926 -0.0164,0.31221 -0.045,0.37174 -0.0212,0.0423 -0.037,0.0484 -0.0614,0.0209 -0.0204,-0.0233 -0.29051,-0.54141 -0.46302,-0.88431 -0.13546,-0.27438 -0.14975,-0.3302 -0.0913,-0.3302 z m 6.73682,0.17145 c 0.005,5.3e-4 0.0111,0.002 0.0172,0.004 0.0362,0.0148 0.0109,0.14367 -0.12567,0.61232 -0.0259,0.14129 -0.0889,0.25242 -0.18098,0.34502 -0.0302,0 -0.0439,-0.0352 -0.0915,-0.23098 -0.0402,-0.16703 -0.0444,-0.31573 -0.0164,-0.44908 0.0484,-0.16721 0.24474,-0.21828 0.3974,-0.28125 z m -0.81756,1.02137 c 0.0116,-0.002 0.0227,0.004 0.037,0.0156 0.0497,0.0347 0.0569,0.12621 0.0238,0.30533 -0.0402,0.23045 -0.0492,0.25585 -0.10874,0.2794 -0.0259,0.0116 -0.0722,0.0198 -0.10293,0.0198 -0.0558,-0.01 -0.0701,-0.055 -0.0569,-0.1233 0,-0.1434 0.0418,-0.26802 0.13679,-0.41513 0.0357,-0.0553 0.054,-0.0789 0.0709,-0.0818 z m -4.75853,0.0106 c 0.0381,0 0.15266,0.0828 0.19526,0.13996 0.0474,0.0606 0.10134,0.42175 0.0709,0.48393 -0.0347,0.0783 -0.20452,0.0392 -0.25135,-0.0582 -0.0286,-0.0585 -0.0963,-0.37386 -0.0963,-0.44874 0,-0.0696 0.0336,-0.11694 0.0815,-0.11694 z m 4.34975,0.0953 c 0.0463,0.0661 0.0582,0.15108 0.0484,0.33734 l -0.009,0.16987 -0.0487,0.0484 c -0.0291,0.0273 -0.0788,0.0603 -0.10848,0.0741 -0.0656,0.0307 -0.11589,0.0336 -0.12515,0.009 -0.0111,-0.0331 0.008,-0.24369 0.0281,-0.31486 0.0238,-0.0733 0.13018,-0.2921 0.16537,-0.3384 0.0161,-0.0423 0.0347,0.0106 0.0497,0.0148 z m -2.76781,-0.01 c 0.0998,0.0254 0.14394,0.11509 0.19844,0.19685 l 0.037,0.0728 -0.0519,0.18018 c -0.0275,0.0992 -0.0569,0.18838 -0.0656,0.19844 -0.01,0.0111 -0.0468,0.0164 -0.10133,0.0159 -0.14553,-0.004 -0.16219,-0.01 -0.20135,-0.0693 l -0.0362,-0.054 0.0307,-0.15161 c 0.0447,-0.21828 0.0662,-0.2839 0.11588,-0.34025 0.0259,-0.0302 0.0519,-0.0468 0.0743,-0.0489 z m -0.92101,0.1561 0.082,0.082 0.0138,0.18574 c 0.007,0.10134 0.0106,0.19579 0.005,0.20717 -0.005,0.0161 -0.0347,0.0204 -0.12674,0.0204 h -0.11956 c -0.064,-0.0699 -0.0839,-0.15531 -0.11086,-0.24342 -0.0627,-0.26511 -0.0627,-0.38602 0.002,-0.4019 0.10636,0.007 0.17621,0.0839 0.254,0.15002 z m 3.19696,-0.12753 c 0.13017,0.0349 0.10424,0.24157 0.10372,0.38921 -0.01,0.23918 -0.0193,0.28892 -0.0503,0.31961 -0.0534,0.0537 -0.20215,0.0238 -0.27438,-0.0556 -0.0238,-0.0286 -0.0259,-0.0376 -0.007,-0.15372 0.0214,-0.14182 0.0489,-0.22992 0.11007,-0.3511 0.0447,-0.0871 0.0868,-0.14182 0.118,-0.14843 z m -2.93582,0.0111 c 0.007,-5.3e-4 0.0188,0 0.0299,0.001 0.0825,0.007 0.15981,0.0606 0.22807,0.15981 l 0.0553,0.0812 c 0.005,0.13282 0,0.27279 -0.0238,0.39608 -0.0143,0.007 -0.0738,0.0183 -0.13229,0.0238 -0.10134,0.009 -0.11086,0.007 -0.14605,-0.0238 -0.0489,-0.0418 -0.0627,-0.11959 -0.0749,-0.37756 -0.007,-0.21034 -0.002,-0.25744 0.0638,-0.26061 z m 1.25095,0.0442 c 0.0886,0.0185 0.14473,0.0661 0.1696,0.14367 0.0198,0.0667 0.032,0.44001 0.0127,0.46593 -0.007,0.0108 -0.0484,0.0249 -0.0963,0.0307 -0.17859,0.0228 -0.33629,0.006 -0.3519,-0.0368 -0.0198,-0.0484 0.11298,-0.52916 0.16219,-0.58869 0.0209,-0.0463 0.0717,-0.0106 0.10372,-0.0148 z m 1.15623,0.003 c 0.0392,-0.004 0.0812,0.0336 0.12197,0.11351 0.0331,0.0667 0.0381,0.09 0.0381,0.23918 0,0.11907 -0.007,0.1704 -0.0198,0.18151 -0.0111,0.009 -0.0558,0.0249 -0.10318,0.0368 -0.0828,0.0217 -0.10081,0.0238 -0.12674,0.0151 l -0.12409,-0.0228 0.009,-0.0738 c 0.009,-0.0963 0.0722,-0.31036 0.11695,-0.40296 0.0265,-0.055 0.0569,-0.0826 0.0876,-0.0865 z m -0.53896,0.002 c 0.0259,-10e-4 0.0381,0.005 0.0545,0.0233 0.0392,0.0463 0.0889,0.1831 0.12013,0.32915 0.0421,0.20558 0.0421,0.20505 -0.0479,0.23204 -0.0392,0.0122 -0.12171,0.0246 -0.18072,0.028 -0.19473,0.01 -0.20955,-0.002 -0.18573,-0.17357 0.0185,-0.1532 0.0942,-0.39476 0.12673,-0.41249 0.0352,-0.0185 0.0759,-0.018 0.11298,-0.0265 z m -9.91798,0.77682 c 0.002,-5.3e-4 0.004,0 0.004,0 0.005,0.10742 0.005,0.2159 0.007,0.32412 -0.27279,-0.0209 -0.47334,-0.086 -0.47334,-0.16272 0,-0.0754 0.19341,-0.13997 0.46249,-0.1614 z m 0.47678,0.009 c 0.22093,0.0275 0.37359,0.0855 0.37094,0.15214 0,0.0672 -0.1479,0.12462 -0.36724,0.1516 -0.002,-0.1008 -0.002,-0.20214 -0.004,-0.30374 z m 10.322,0.29395 c 0.0188,-0.002 0.027,-0.003 0.0556,-5.3e-4 0.11483,0.0114 0.13124,0.0185 0.13124,0.0571 0,0.0508 -0.0871,0.20347 -0.14605,0.25639 -0.0275,0.0265 -0.0656,0.0484 -0.0788,0.0484 -0.0661,0 -0.10478,-0.13944 -0.0738,-0.26776 0.0188,-0.0696 0.0529,-0.091 0.11191,-0.0937 z m -0.41619,0.0458 c 0.0513,-0.005 0.10081,0.009 0.15055,0.0159 -0.0143,0.14499 -0.0794,0.26353 -0.20002,0.34237 -0.0299,0 -0.0447,-0.0569 -0.0447,-0.18097 0,-0.14764 0.008,-0.17568 0.0942,-0.17727 z m -0.4564,0.0534 c 0.10636,0 0.20002,0.005 0.20452,0.0109 0.0198,0.0188 -0.0376,0.16114 -0.12171,0.30533 -0.0722,0.128591 -0.0828,0.137851 -0.12753,0.141291 -0.17515,-0.01984 -0.17012,-0.225421 -0.19711,-0.366711 0,-0.0836 0.0185,-0.0907 0.24183,-0.0907 z m -1.65868,0.0159 c 0.12198,0.002 0.16934,0.0204 0.16934,0.0672 0,0.0595 -0.0452,0.17807 -0.0712,0.19288 -0.0392,0.0217 -0.0423,0.0204 -0.11959,-0.0601 -0.12171,-0.13652 -0.13547,-0.16192 0.0214,-0.20002 z m 0.58659,0.006 c 0.002,0.003 0.0259,0.0463 0.0497,0.0947 0.0516,0.10107 0.0556,0.14499 0.0185,0.1786 -0.0871,0.0497 -0.10531,0.0217 -0.18389,-0.0286 -0.0915,-0.0865 -0.16378,-0.20294 -0.14023,-0.22702 0.0818,-0.0294 0.17145,-0.0183 0.25585,-0.0177 z m 0.23256,0.003 0.21776,0.004 c 0.0849,0 0.15822,0.004 0.16219,0.0111 0.0148,0.0132 -0.0331,0.29634 -0.059,0.36037 -0.0299,0.0717 -0.13415,0.07223 -0.18812,-0.0127 -0.077,-0.12171 -0.1278,-0.22437 -0.12938,-0.29475 z"
         inkscape:connector-curvature="0" />
    </g>
  </g>
</svg>
