<?xml version="1.0" encoding="UTF-8" standalone="no"?>
<!-- Created with Inkscape (http://www.inkscape.org/) -->

<svg
   xmlns:dc="http://purl.org/dc/elements/1.1/"
   xmlns:cc="http://creativecommons.org/ns#"
   xmlns:rdf="http://www.w3.org/1999/02/22-rdf-syntax-ns#"
   xmlns:svg="http://www.w3.org/2000/svg"
   xmlns="http://www.w3.org/2000/svg"
   xmlns:sodipodi="http://sodipodi.sourceforge.net/DTD/sodipodi-0.dtd"
   xmlns:inkscape="http://www.inkscape.org/namespaces/inkscape"
   width="1000"
   height="1000"
   viewBox="0 0 264.58333 264.58334"
   version="1.1"
   id="svg562"
   inkscape:version="0.92.4 (unknown)"
   sodipodi:docname="carlton.svg">
  <defs
     id="defs556" />
  <sodipodi:namedview
     id="base"
     pagecolor="#ffffff"
     bordercolor="#666666"
     borderopacity="1.0"
     inkscape:pageopacity="0.0"
     inkscape:pageshadow="2"
     inkscape:zoom="0.70710678"
     inkscape:cx="309.31877"
     inkscape:cy="354.69887"
     inkscape:document-units="mm"
     inkscape:current-layer="layer1"
     showgrid="false"
     units="px"
     inkscape:window-width="1920"
     inkscape:window-height="1043"
     inkscape:window-x="0"
     inkscape:window-y="0"
     inkscape:window-maximized="1"
     inkscape:snap-global="false"
     showguides="false" />
  <metadata
     id="metadata559">
    <rdf:RDF>
      <cc:Work
         rdf:about="">
        <dc:format>image/svg+xml</dc:format>
        <dc:type
           rdf:resource="http://purl.org/dc/dcmitype/StillImage" />
        <dc:title></dc:title>
      </cc:Work>
    </rdf:RDF>
  </metadata>
  <g
     inkscape:label="Layer 1"
     inkscape:groupmode="layer"
     id="layer1">
    <rect
       style="fill:#75507b;fill-opacity:1;stroke:#000000;stroke-width:2;stroke-miterlimit:4;stroke-dasharray:none"
       id="inside"
       width="36.455551"
       height="234.44821"
       x="46.884758"
       y="23.763041" />
    <path
       style="fill:#5c3566;fill-opacity:1;stroke:#000000;stroke-width:7.55905533;stroke-linecap:square;stroke-linejoin:round;stroke-miterlimit:4;stroke-dasharray:none;stroke-dashoffset:0;stroke-opacity:1"
       d="m 722.81641,97.304688 c 0,0.218116 0.002,0.416656 0,0.634765 l -53.15235,1.425781 -69.02539,19.654296 c 8.12289,56.94438 5.33225,103.67793 -3.31055,144.95899 5.89047,64.96371 8.77288,133.10858 7.86719,204.24023 -0.94802,74.32721 -9.5096,150.42412 -12.20312,227.30273 -3.29341,93.98752 -0.71282,188.93267 -0.73633,280.4043 h 123.50195 21.53907 161.50976 c -0.0227,-91.47163 2.63091,-186.41678 -0.66016,-280.4043 -2.69351,-76.87861 -11.32932,-152.97552 -12.27734,-227.30273 -0.90569,-71.13165 2.04898,-139.27652 7.93945,-204.24023 -8.64279,-41.28106 -11.50569,-88.01461 -3.38281,-144.95899 L 823.30859,99.919922 748.10352,97.939453 c 0,-0.213052 0.002,-0.421729 0,-0.634765 l -12.57032,0.316406 z m -540.30469,0.01367 -76.12891,21.736331 c 8.12292,56.94437 5.28148,103.64277 -3.36133,144.92383 5.89047,64.9637 8.80607,133.1203 7.9004,204.25195 -0.94803,74.32721 -9.53499,150.43002 -12.228521,227.30859 -3.293393,93.98752 -0.689366,188.90785 -0.71289,280.37696 H 243.00391 V 384.44531 C 222.64603,288.86762 183.10218,206.35544 182.51172,97.318359 Z m 137.51758,0 C 319.43884,206.35544 279.89499,288.86762 259.53711,384.44531 v 591.47071 h 145.02344 c -0.0235,-91.46911 2.58051,-186.38944 -0.71289,-280.37696 -2.69352,-76.87857 -11.28245,-152.98138 -12.23047,-227.30859 -0.90569,-71.13165 2.01187,-139.28825 7.90234,-204.25195 -8.6428,-41.28106 -11.48425,-87.97946 -3.36133,-144.92383 z"
       transform="scale(0.26458333)"
       id="primary1"
       inkscape:connector-curvature="0" />
    <path
       id="primary2"
       transform="matrix(0,1,1,0,0,0)"
       style="fill:#5c3566;stroke:#000000;stroke-width:2;stroke-linecap:square;stroke-linejoin:round;stroke-miterlimit:4;stroke-dasharray:none;stroke-dashoffset:0;stroke-opacity:1"
       d="m 125.01541,211.42006 a 5.0212755,4.6575036 0 0 1 -5.02127,4.6575 5.0212755,4.6575036 0 0 1 -5.02128,-4.65749 m 0.0221,-50.72062 v 73.24733 m 9.99827,-73.56165 v 73.40418 m 28.8494,6.37786 -0.53951,20.173 -13.06083,0.50042 c -3.44304,0.17925 -4.32476,-1.16205 -3.95436,-4.3905 l 0.77906,-18.00514 z m 0,-85.50388 -0.53951,-20.173 -13.06083,-0.50042 c -3.44304,-0.17925 -4.32476,1.16205 -3.95436,4.3905 l 0.77906,18.00514 z m 0,-130.776291 -0.53951,-20.1730009 -13.06083,-0.5004194 c -3.44304,-0.1792547 -4.32476,1.1620435 -3.95436,4.3904955 l 0.77906,18.0051398 z m 0,85.503941 -0.53951,20.173 -13.06083,0.50042 c -3.44304,0.17925 -4.32476,-1.16205 -3.95436,-4.3905 l 0.77906,-18.00514 z M 12.273752,62.992596 h 0.273107 c 2.00234,-25.870002 22.439759,-25.98826 29.491565,-26.705528 l 1.447402,12.331541 6.353268,-12.117618 55.234116,27.911327 C 95.208461,64.105469 83.823845,63.201104 45.749865,51.847684 35.795204,48.788528 26.1727,55.190659 25.945894,66.47437 26.170016,77.769284 35.789165,84.181374 45.749865,81.120351 83.823845,69.766308 95.208461,68.861943 105.07321,68.555094 L 49.839094,96.447251 43.485826,84.348803 42.038424,96.680655 C 34.985947,95.963014 14.525042,95.837909 12.525386,69.955521 h -0.251634 c 0,-1.211836 0.02349,-2.357075 0.06308,-3.481151 -0.03959,-1.118475 -0.06308,-2.277406 -0.06308,-3.481774 z"
       inkscape:connector-curvature="0" />
    <path
       id="primary3"
       style="fill:#5c3566;stroke:#000000;stroke-width:2;stroke-linecap:square;stroke-linejoin:round;stroke-miterlimit:4;stroke-dasharray:none;stroke-dashoffset:0;stroke-opacity:1"
       d="m 162.41979,6.201643 c 1.96434,12.477717 4.18012,22.363934 7.39115,21.850599 5.55254,-0.882398 13.40738,-1.316552 23.90436,-1.258843 v 0.08455 c 1.08424,-0.02416 2.09566,-0.04831 3.13136,-0.06308 1.03818,0.01476 2.06454,0.03892 3.15127,0.06308 v -0.08455 c 10.48702,-0.05704 18.33564,0.376445 23.88507,1.258843 3.21102,0.513335 5.42681,-9.372882 7.39114,-21.850599 -8.96273,1.4997417 -22.05331,1.5225566 -34.40757,1.8030452 C 184.50609,7.7235286 171.38689,7.7027268 162.41979,6.201643 Z m 71.63342,24.620592 c 14.99204,-0.550912 16.56177,16.815225 18.11282,25.002405 5.59922,29.551286 5.25191,53.49951 6.89072,81.48194 l -20.11698,1.07834 -3.77866,-34.26994 c 0.0118,-11.8389 -2.84567,-21.806311 -1.36558,-32.69571 1.07491,-11.889228 1.23674,-27.40736 0.25768,-40.597035 z m -73.44775,0 C 145.61342,30.271323 144.0437,47.63746 142.49265,55.82464 c -5.59922,29.551286 -5.25192,53.49951 -6.89073,81.48194 l 20.11698,1.07834 3.77867,-34.26994 c -0.0118,-11.8389 2.84567,-21.806311 1.36557,-32.69571 -1.0749,-11.889228 -1.23673,-27.40736 -0.25768,-40.597035 z M 27.943259,31.499971 C 12.951217,30.949059 13.267403,47.63746 11.716351,55.82464 6.1171315,85.375926 6.4644375,109.32415 4.8256262,137.30658 l 20.1169838,1.07834 3.778665,-34.26994 C 28.709449,92.27608 28.423139,80.61433 26.943043,69.724931 30.140374,56.684224 29.26962,44.068276 27.943259,31.499971 Z m 77.077101,0 c 14.99204,-0.550912 14.67585,16.137489 16.22691,24.324669 5.59922,29.551286 5.25191,53.49951 6.89072,81.48194 l -20.11698,1.07834 -3.77867,-34.26994 c 0.0118,-11.8389 0.29814,-23.50065 1.77823,-34.390049 -3.19733,-13.040707 -2.32657,-25.656655 -1.00021,-38.22496 z"
       inkscape:connector-curvature="0" />
    <path
       id="secondary"
       style="opacity:0.98000004;fill:#5c3566;stroke:#000000;stroke-width:1;stroke-linecap:square;stroke-linejoin:round;stroke-miterlimit:4;stroke-dasharray:none;stroke-dashoffset:0;stroke-opacity:1"
       d="m 185.2018,120.07886 a 0.67179769,0.72426814 0 0 1 -0.6718,0.72427 0.67179769,0.72426814 0 0 1 -0.6718,-0.72427 0.67179769,0.72426814 0 0 1 0.6718,-0.72427 0.67179769,0.72426814 0 0 1 0.6718,0.72427 z m 25.46357,0 a 0.67179769,0.72426814 0 0 1 -0.67179,0.72427 0.67179769,0.72426814 0 0 1 -0.6718,-0.72427 0.67179769,0.72426814 0 0 1 0.6718,-0.72427 0.67179769,0.72426814 0 0 1 0.67179,0.72427 z m -24.01342,-1e-5 a 2.1219649,2.2876999 0 0 1 -2.12197,2.2877 2.1219649,2.2876999 0 0 1 -2.12196,-2.2877 2.1219649,2.2876999 0 0 1 2.12196,-2.2877 2.1219649,2.2876999 0 0 1 2.12197,2.2877 z m 25.46361,0 a 2.1219649,2.2876999 0 0 1 -2.12197,2.2877 2.1219649,2.2876999 0 0 1 -2.12196,-2.2877 2.1219649,2.2876999 0 0 1 2.12196,-2.2877 2.1219649,2.2876999 0 0 1 2.12197,2.2877 z M 160.22766,61.276721 C 152.839,79.766825 152.35477,105.2262 149.53897,136.85565 m 85.19329,-75.578929 c 7.38866,18.490104 7.8729,43.949479 10.68869,75.578929 M 176.88901,124.6544 V 258.01935 M 217.75659,124.6544 V 258.01935 M 197.3228,124.6544 v 133.36495 m -0.061,-197.041906 v 53.921586 m -6.62123,-53.876627 h 13.32087 l -6.64114,-7.15917 -6.75877,7.286665 m -29.93056,71.962772 h 2.39193 c 0,6.06003 1.68425,13.43527 -3.2216,13.43192 m 3.2216,-10.55658 c 0,0.39323 0.0156,26.65783 0.0156,27.14231 0,4.38448 -1.91578,7.64365 -5.02162,8.59382 m 75.9025,-38.61147 h -3.99837 c 0,6.06003 -1.05561,13.43527 3.85024,13.43192 l 0.9081,-0.0114 m -4.75834,-10.54518 c 0,0.39323 -0.0156,26.65783 -0.0156,27.14231 0,5.24339 2.73923,8.87699 6.97786,8.87699 M 61.627024,136.58724 h -3.501069 m 3.501069,-16.23613 h -3.501069 m 3.501069,-16.11669 h -3.501069 m -14.508342,-14.172981 -6.381676,-0.369381 -1.465816,29.434822 6.381676,0.36938 z M 29.7284,133.11267 h 14.337886 c 0,6.06003 1.055612,13.43527 -3.850241,13.43192 l -11.099414,-0.0114 m 14.949655,-10.54518 c 0,0.39323 0.01556,26.65783 0.01556,27.14231 0,5.24339 -2.739236,8.87699 -6.977863,8.87699 l -9.765212,-0.0114 m 43.997883,-35.40867 h 3.501068 m -3.501068,-16.23613 h 3.501068 m -3.501068,-16.11669 h 3.501068 m 15.136673,-14.172883 6.381674,-0.369381 1.465816,29.434814 -6.381675,0.36938 z M 103.11266,133.11267 H 86.696542 c 0,6.06003 -1.055612,13.43527 3.850241,13.43192 l 13.325847,-0.0114 M 86.696542,135.98801 c 0,0.39323 -0.01556,26.65783 -0.01556,27.14231 0,5.24339 2.739236,8.87699 6.977863,8.87699 l 11.548235,-0.0114"
       inkscape:connector-curvature="0" />
  </g>
</svg>
